<svg width="24" height="24" viewBox="0 0 24 24" fill="none" xmlns="http://www.w3.org/2000/svg">
<path d="M11.5911 2.57935C11.7903 2.2971 12.2092 2.2971 12.4084 2.57935L14.009 4.84692C14.1368 5.02792 14.3686 5.10363 14.5784 5.03247L17.2073 4.13794C17.5342 4.02694 17.8731 4.27308 17.8684 4.61841L17.8303 7.3938C17.8273 7.61546 17.9701 7.81355 18.1819 7.87915L20.8333 8.70044C21.1631 8.80264 21.2927 9.20015 21.0862 9.47681L19.4241 11.7004C19.2913 11.8779 19.2914 12.1215 19.4241 12.2991L21.0862 14.5227C21.2931 14.7994 21.1632 15.1978 20.8333 15.3L18.1819 16.1213C17.9702 16.1869 17.8274 16.3842 17.8303 16.6057L17.8684 19.3821C17.873 19.7273 17.5342 19.9735 17.2073 19.8625L14.5784 18.968C14.3686 18.8968 14.1368 18.9725 14.009 19.1536L12.4084 21.4211C12.2092 21.7034 11.7903 21.7034 11.5911 21.4211L9.99048 19.1536C9.86269 18.9725 9.63096 18.8967 9.42114 18.968L6.79224 19.8625C6.46538 19.9734 6.12746 19.7272 6.13208 19.3821L6.17017 16.6057C6.17309 16.3842 6.02929 16.1869 5.81763 16.1213L3.16626 15.3C2.83627 15.1978 2.70646 14.7994 2.91333 14.5227L4.57642 12.2991C4.70877 12.1216 4.70898 11.8778 4.57642 11.7004L2.91333 9.47681C2.70686 9.20015 2.83642 8.80263 3.16626 8.70044L5.81763 7.87915C6.02938 7.81355 6.17321 7.61546 6.17017 7.3938L6.13208 4.61841C6.12734 4.27312 6.4653 4.02704 6.79224 4.13794L9.42114 5.03247C9.63094 5.1037 9.86271 5.02796 9.99048 4.84692L11.5911 2.57935ZM15.843 8.64673C15.6478 8.45148 15.3313 8.45152 15.136 8.64673L8.13599 15.6467C7.94072 15.842 7.94072 16.1585 8.13599 16.3538C8.33126 16.5488 8.64782 16.549 8.84302 16.3538L15.843 9.35376C16.0382 9.15856 16.0381 8.84199 15.843 8.64673ZM14.4895 13.5002C13.6611 13.5002 12.9895 14.1718 12.9895 15.0002C12.9896 15.8286 13.6611 16.5002 14.4895 16.5002C15.3178 16.5001 15.9894 15.8285 15.9895 15.0002C15.9895 14.1719 15.3178 13.5004 14.4895 13.5002ZM9.4895 8.50024C8.66107 8.50024 7.9895 9.17182 7.9895 10.0002C7.98958 10.8286 8.66112 11.5002 9.4895 11.5002C10.3178 11.5001 10.9894 10.8285 10.9895 10.0002C10.9895 9.1719 10.3178 8.50038 9.4895 8.50024Z" fill="black"/>
<path d="M11.5911 2.57935C11.7903 2.2971 12.2092 2.2971 12.4084 2.57935L14.009 4.84692C14.1368 5.02792 14.3686 5.10363 14.5784 5.03247L17.2073 4.13794C17.5342 4.02694 17.8731 4.27308 17.8684 4.61841L17.8303 7.3938C17.8273 7.61546 17.9701 7.81355 18.1819 7.87915L20.8333 8.70044C21.1631 8.80264 21.2927 9.20015 21.0862 9.47681L19.4241 11.7004C19.2913 11.8779 19.2914 12.1215 19.4241 12.2991L21.0862 14.5227C21.2931 14.7994 21.1632 15.1978 20.8333 15.3L18.1819 16.1213C17.9702 16.1869 17.8274 16.3842 17.8303 16.6057L17.8684 19.3821C17.873 19.7273 17.5342 19.9735 17.2073 19.8625L14.5784 18.968C14.3686 18.8968 14.1368 18.9725 14.009 19.1536L12.4084 21.4211C12.2092 21.7034 11.7903 21.7034 11.5911 21.4211L9.99048 19.1536C9.86269 18.9725 9.63096 18.8967 9.42114 18.968L6.79224 19.8625C6.46538 19.9734 6.12746 19.7272 6.13208 19.3821L6.17017 16.6057C6.17309 16.3842 6.02929 16.1869 5.81763 16.1213L3.16626 15.3C2.83627 15.1978 2.70646 14.7994 2.91333 14.5227L4.57642 12.2991C4.70877 12.1216 4.70898 11.8778 4.57642 11.7004L2.91333 9.47681C2.70686 9.20015 2.83642 8.80263 3.16626 8.70044L5.81763 7.87915C6.02938 7.81355 6.17321 7.61546 6.17017 7.3938L6.13208 4.61841C6.12734 4.27312 6.4653 4.02704 6.79224 4.13794L9.42114 5.03247C9.63094 5.1037 9.86271 5.02796 9.99048 4.84692L11.5911 2.57935ZM15.843 8.64673C15.6478 8.45148 15.3313 8.45152 15.136 8.64673L8.13599 15.6467C7.94072 15.842 7.94072 16.1585 8.13599 16.3538C8.33126 16.5488 8.64782 16.549 8.84302 16.3538L15.843 9.35376C16.0382 9.15856 16.0381 8.84199 15.843 8.64673ZM14.4895 13.5002C13.6611 13.5002 12.9895 14.1718 12.9895 15.0002C12.9896 15.8286 13.6611 16.5002 14.4895 16.5002C15.3178 16.5001 15.9894 15.8285 15.9895 15.0002C15.9895 14.1719 15.3178 13.5004 14.4895 13.5002ZM9.4895 8.50024C8.66107 8.50024 7.9895 9.17182 7.9895 10.0002C7.98958 10.8286 8.66112 11.5002 9.4895 11.5002C10.3178 11.5001 10.9894 10.8285 10.9895 10.0002C10.9895 9.1719 10.3178 8.50038 9.4895 8.50024Z" fill="black" fill-opacity="0.2"/>
<path d="M11.5911 2.57935C11.7903 2.2971 12.2092 2.2971 12.4084 2.57935L14.009 4.84692C14.1368 5.02792 14.3686 5.10363 14.5784 5.03247L17.2073 4.13794C17.5342 4.02694 17.8731 4.27308 17.8684 4.61841L17.8303 7.3938C17.8273 7.61546 17.9701 7.81355 18.1819 7.87915L20.8333 8.70044C21.1631 8.80264 21.2927 9.20015 21.0862 9.47681L19.4241 11.7004C19.2913 11.8779 19.2914 12.1215 19.4241 12.2991L21.0862 14.5227C21.2931 14.7994 21.1632 15.1978 20.8333 15.3L18.1819 16.1213C17.9702 16.1869 17.8274 16.3842 17.8303 16.6057L17.8684 19.3821C17.873 19.7273 17.5342 19.9735 17.2073 19.8625L14.5784 18.968C14.3686 18.8968 14.1368 18.9725 14.009 19.1536L12.4084 21.4211C12.2092 21.7034 11.7903 21.7034 11.5911 21.4211L9.99048 19.1536C9.86269 18.9725 9.63096 18.8967 9.42114 18.968L6.79224 19.8625C6.46538 19.9734 6.12746 19.7272 6.13208 19.3821L6.17017 16.6057C6.17309 16.3842 6.02929 16.1869 5.81763 16.1213L3.16626 15.3C2.83627 15.1978 2.70646 14.7994 2.91333 14.5227L4.57642 12.2991C4.70877 12.1216 4.70898 11.8778 4.57642 11.7004L2.91333 9.47681C2.70686 9.20015 2.83642 8.80263 3.16626 8.70044L5.81763 7.87915C6.02938 7.81355 6.17321 7.61546 6.17017 7.3938L6.13208 4.61841C6.12734 4.27312 6.4653 4.02704 6.79224 4.13794L9.42114 5.03247C9.63094 5.1037 9.86271 5.02796 9.99048 4.84692L11.5911 2.57935ZM15.843 8.64673C15.6478 8.45148 15.3313 8.45152 15.136 8.64673L8.13599 15.6467C7.94072 15.842 7.94072 16.1585 8.13599 16.3538C8.33126 16.5488 8.64782 16.549 8.84302 16.3538L15.843 9.35376C16.0382 9.15856 16.0381 8.84199 15.843 8.64673ZM14.4895 13.5002C13.6611 13.5002 12.9895 14.1718 12.9895 15.0002C12.9896 15.8286 13.6611 16.5002 14.4895 16.5002C15.3178 16.5001 15.9894 15.8285 15.9895 15.0002C15.9895 14.1719 15.3178 13.5004 14.4895 13.5002ZM9.4895 8.50024C8.66107 8.50024 7.9895 9.17182 7.9895 10.0002C7.98958 10.8286 8.66112 11.5002 9.4895 11.5002C10.3178 11.5001 10.9894 10.8285 10.9895 10.0002C10.9895 9.1719 10.3178 8.50038 9.4895 8.50024Z" fill="black" fill-opacity="0.2"/>
<path d="M11.5911 2.57935C11.7903 2.2971 12.2092 2.2971 12.4084 2.57935L14.009 4.84692C14.1368 5.02792 14.3686 5.10363 14.5784 5.03247L17.2073 4.13794C17.5342 4.02694 17.8731 4.27308 17.8684 4.61841L17.8303 7.3938C17.8273 7.61546 17.9701 7.81355 18.1819 7.87915L20.8333 8.70044C21.1631 8.80264 21.2927 9.20015 21.0862 9.47681L19.4241 11.7004C19.2913 11.8779 19.2914 12.1215 19.4241 12.2991L21.0862 14.5227C21.2931 14.7994 21.1632 15.1978 20.8333 15.3L18.1819 16.1213C17.9702 16.1869 17.8274 16.3842 17.8303 16.6057L17.8684 19.3821C17.873 19.7273 17.5342 19.9735 17.2073 19.8625L14.5784 18.968C14.3686 18.8968 14.1368 18.9725 14.009 19.1536L12.4084 21.4211C12.2092 21.7034 11.7903 21.7034 11.5911 21.4211L9.99048 19.1536C9.86269 18.9725 9.63096 18.8967 9.42114 18.968L6.79224 19.8625C6.46538 19.9734 6.12746 19.7272 6.13208 19.3821L6.17017 16.6057C6.17309 16.3842 6.02929 16.1869 5.81763 16.1213L3.16626 15.3C2.83627 15.1978 2.70646 14.7994 2.91333 14.5227L4.57642 12.2991C4.70877 12.1216 4.70898 11.8778 4.57642 11.7004L2.91333 9.47681C2.70686 9.20015 2.83642 8.80263 3.16626 8.70044L5.81763 7.87915C6.02938 7.81355 6.17321 7.61546 6.17017 7.3938L6.13208 4.61841C6.12734 4.27312 6.4653 4.02704 6.79224 4.13794L9.42114 5.03247C9.63094 5.1037 9.86271 5.02796 9.99048 4.84692L11.5911 2.57935ZM15.843 8.64673C15.6478 8.45148 15.3313 8.45152 15.136 8.64673L8.13599 15.6467C7.94072 15.842 7.94072 16.1585 8.13599 16.3538C8.33126 16.5488 8.64782 16.549 8.84302 16.3538L15.843 9.35376C16.0382 9.15856 16.0381 8.84199 15.843 8.64673ZM14.4895 13.5002C13.6611 13.5002 12.9895 14.1718 12.9895 15.0002C12.9896 15.8286 13.6611 16.5002 14.4895 16.5002C15.3178 16.5001 15.9894 15.8285 15.9895 15.0002C15.9895 14.1719 15.3178 13.5004 14.4895 13.5002ZM9.4895 8.50024C8.66107 8.50024 7.9895 9.17182 7.9895 10.0002C7.98958 10.8286 8.66112 11.5002 9.4895 11.5002C10.3178 11.5001 10.9894 10.8285 10.9895 10.0002C10.9895 9.1719 10.3178 8.50038 9.4895 8.50024Z" fill="black" fill-opacity="0.2"/>
</svg>
