<svg width="24" height="24" viewBox="0 0 24 24" fill="none" xmlns="http://www.w3.org/2000/svg">
<path fill-rule="evenodd" clip-rule="evenodd" d="M14.1941 2.8851C16.4941 2.5861 18.6521 3.0951 19.8391 4.2821C20.6291 5.0731 21.0191 5.9931 20.9991 7.0021C20.9821 7.9631 20.5941 8.8961 20.0611 9.7661C19.2991 11.0111 18.1091 12.3291 16.7911 13.6811L16.0621 14.4211L14.4461 16.0381L13.7551 16.7201C12.3771 18.0661 11.0331 19.2861 9.7661 20.0611C8.8961 20.5941 7.9631 20.9811 7.0021 21.0001C5.9931 21.0201 5.0731 20.6301 4.2821 19.8391C3.0951 18.6521 2.5861 16.4951 2.8851 14.1941C3.1921 11.8341 4.3561 9.1591 6.7571 6.7571C9.1591 4.3571 11.8351 3.1921 14.1941 2.8851ZM5.6911 11.6651C5.35114 12.3928 5.10194 13.1596 4.9491 13.9481C5.36976 14.3088 5.8671 14.5854 6.4411 14.7781C6.69279 14.862 6.96751 14.8426 7.20484 14.7239C7.44217 14.6053 7.62265 14.3973 7.7066 14.1456C7.79054 13.8939 7.77106 13.6192 7.65244 13.3819C7.53382 13.1445 7.32579 12.964 7.0741 12.8801C6.4071 12.6581 5.9621 12.2681 5.6911 11.6641V11.6651ZM8.6911 7.6791C8.18748 8.13371 7.71757 8.62434 7.2851 9.1471C7.4791 9.3981 7.6911 9.6361 7.9061 9.8511C8.4911 10.4351 9.2391 10.9961 9.9761 11.2411C10.2183 11.3229 10.4827 11.3088 10.7149 11.2017C10.9471 11.0946 11.1294 10.9026 11.2244 10.6652C11.3194 10.4278 11.3199 10.1631 11.2257 9.92535C11.1315 9.68764 10.9499 9.49502 10.7181 9.3871L10.6091 9.3441C10.2861 9.2371 9.7971 8.9141 9.3211 8.4371C9.08664 8.20579 8.87562 7.95189 8.6911 7.6791ZM13.1111 5.1491C12.4931 5.3271 11.8521 5.5791 11.2041 5.9171C11.7241 6.7641 12.5031 7.3691 13.5121 7.7061C13.6372 7.74968 13.7696 7.76798 13.9018 7.75995C14.034 7.75191 14.1633 7.7177 14.2822 7.6593C14.401 7.60089 14.5071 7.51946 14.5942 7.41973C14.6814 7.31999 14.7478 7.20394 14.7897 7.07832C14.8317 6.95269 14.8482 6.81999 14.8384 6.68791C14.8286 6.55584 14.7927 6.42702 14.7327 6.30894C14.6728 6.19086 14.5899 6.08587 14.4891 6.00007C14.3882 5.91426 14.2713 5.84935 14.1451 5.8091C13.7111 5.6641 13.3711 5.4491 13.1111 5.1491Z" fill="black"/>
<path fill-rule="evenodd" clip-rule="evenodd" d="M14.1941 2.8851C16.4941 2.5861 18.6521 3.0951 19.8391 4.2821C20.6291 5.0731 21.0191 5.9931 20.9991 7.0021C20.9821 7.9631 20.5941 8.8961 20.0611 9.7661C19.2991 11.0111 18.1091 12.3291 16.7911 13.6811L16.0621 14.4211L14.4461 16.0381L13.7551 16.7201C12.3771 18.0661 11.0331 19.2861 9.7661 20.0611C8.8961 20.5941 7.9631 20.9811 7.0021 21.0001C5.9931 21.0201 5.0731 20.6301 4.2821 19.8391C3.0951 18.6521 2.5861 16.4951 2.8851 14.1941C3.1921 11.8341 4.3561 9.1591 6.7571 6.7571C9.1591 4.3571 11.8351 3.1921 14.1941 2.8851ZM5.6911 11.6651C5.35114 12.3928 5.10194 13.1596 4.9491 13.9481C5.36976 14.3088 5.8671 14.5854 6.4411 14.7781C6.69279 14.862 6.96751 14.8426 7.20484 14.7239C7.44217 14.6053 7.62265 14.3973 7.7066 14.1456C7.79054 13.8939 7.77106 13.6192 7.65244 13.3819C7.53382 13.1445 7.32579 12.964 7.0741 12.8801C6.4071 12.6581 5.9621 12.2681 5.6911 11.6641V11.6651ZM8.6911 7.6791C8.18748 8.13371 7.71757 8.62434 7.2851 9.1471C7.4791 9.3981 7.6911 9.6361 7.9061 9.8511C8.4911 10.4351 9.2391 10.9961 9.9761 11.2411C10.2183 11.3229 10.4827 11.3088 10.7149 11.2017C10.9471 11.0946 11.1294 10.9026 11.2244 10.6652C11.3194 10.4278 11.3199 10.1631 11.2257 9.92535C11.1315 9.68764 10.9499 9.49502 10.7181 9.3871L10.6091 9.3441C10.2861 9.2371 9.7971 8.9141 9.3211 8.4371C9.08664 8.20579 8.87562 7.95189 8.6911 7.6791ZM13.1111 5.1491C12.4931 5.3271 11.8521 5.5791 11.2041 5.9171C11.7241 6.7641 12.5031 7.3691 13.5121 7.7061C13.6372 7.74968 13.7696 7.76798 13.9018 7.75995C14.034 7.75191 14.1633 7.7177 14.2822 7.6593C14.401 7.60089 14.5071 7.51946 14.5942 7.41973C14.6814 7.31999 14.7478 7.20394 14.7897 7.07832C14.8317 6.95269 14.8482 6.81999 14.8384 6.68791C14.8286 6.55584 14.7927 6.42702 14.7327 6.30894C14.6728 6.19086 14.5899 6.08587 14.4891 6.00007C14.3882 5.91426 14.2713 5.84935 14.1451 5.8091C13.7111 5.6641 13.3711 5.4491 13.1111 5.1491Z" fill="black" fill-opacity="0.2"/>
<path fill-rule="evenodd" clip-rule="evenodd" d="M14.1941 2.8851C16.4941 2.5861 18.6521 3.0951 19.8391 4.2821C20.6291 5.0731 21.0191 5.9931 20.9991 7.0021C20.9821 7.9631 20.5941 8.8961 20.0611 9.7661C19.2991 11.0111 18.1091 12.3291 16.7911 13.6811L16.0621 14.4211L14.4461 16.0381L13.7551 16.7201C12.3771 18.0661 11.0331 19.2861 9.7661 20.0611C8.8961 20.5941 7.9631 20.9811 7.0021 21.0001C5.9931 21.0201 5.0731 20.6301 4.2821 19.8391C3.0951 18.6521 2.5861 16.4951 2.8851 14.1941C3.1921 11.8341 4.3561 9.1591 6.7571 6.7571C9.1591 4.3571 11.8351 3.1921 14.1941 2.8851ZM5.6911 11.6651C5.35114 12.3928 5.10194 13.1596 4.9491 13.9481C5.36976 14.3088 5.8671 14.5854 6.4411 14.7781C6.69279 14.862 6.96751 14.8426 7.20484 14.7239C7.44217 14.6053 7.62265 14.3973 7.7066 14.1456C7.79054 13.8939 7.77106 13.6192 7.65244 13.3819C7.53382 13.1445 7.32579 12.964 7.0741 12.8801C6.4071 12.6581 5.9621 12.2681 5.6911 11.6641V11.6651ZM8.6911 7.6791C8.18748 8.13371 7.71757 8.62434 7.2851 9.1471C7.4791 9.3981 7.6911 9.6361 7.9061 9.8511C8.4911 10.4351 9.2391 10.9961 9.9761 11.2411C10.2183 11.3229 10.4827 11.3088 10.7149 11.2017C10.9471 11.0946 11.1294 10.9026 11.2244 10.6652C11.3194 10.4278 11.3199 10.1631 11.2257 9.92535C11.1315 9.68764 10.9499 9.49502 10.7181 9.3871L10.6091 9.3441C10.2861 9.2371 9.7971 8.9141 9.3211 8.4371C9.08664 8.20579 8.87562 7.95189 8.6911 7.6791ZM13.1111 5.1491C12.4931 5.3271 11.8521 5.5791 11.2041 5.9171C11.7241 6.7641 12.5031 7.3691 13.5121 7.7061C13.6372 7.74968 13.7696 7.76798 13.9018 7.75995C14.034 7.75191 14.1633 7.7177 14.2822 7.6593C14.401 7.60089 14.5071 7.51946 14.5942 7.41973C14.6814 7.31999 14.7478 7.20394 14.7897 7.07832C14.8317 6.95269 14.8482 6.81999 14.8384 6.68791C14.8286 6.55584 14.7927 6.42702 14.7327 6.30894C14.6728 6.19086 14.5899 6.08587 14.4891 6.00007C14.3882 5.91426 14.2713 5.84935 14.1451 5.8091C13.7111 5.6641 13.3711 5.4491 13.1111 5.1491Z" fill="black" fill-opacity="0.2"/>
<path fill-rule="evenodd" clip-rule="evenodd" d="M14.1941 2.8851C16.4941 2.5861 18.6521 3.0951 19.8391 4.2821C20.6291 5.0731 21.0191 5.9931 20.9991 7.0021C20.9821 7.9631 20.5941 8.8961 20.0611 9.7661C19.2991 11.0111 18.1091 12.3291 16.7911 13.6811L16.0621 14.4211L14.4461 16.0381L13.7551 16.7201C12.3771 18.0661 11.0331 19.2861 9.7661 20.0611C8.8961 20.5941 7.9631 20.9811 7.0021 21.0001C5.9931 21.0201 5.0731 20.6301 4.2821 19.8391C3.0951 18.6521 2.5861 16.4951 2.8851 14.1941C3.1921 11.8341 4.3561 9.1591 6.7571 6.7571C9.1591 4.3571 11.8351 3.1921 14.1941 2.8851ZM5.6911 11.6651C5.35114 12.3928 5.10194 13.1596 4.9491 13.9481C5.36976 14.3088 5.8671 14.5854 6.4411 14.7781C6.69279 14.862 6.96751 14.8426 7.20484 14.7239C7.44217 14.6053 7.62265 14.3973 7.7066 14.1456C7.79054 13.8939 7.77106 13.6192 7.65244 13.3819C7.53382 13.1445 7.32579 12.964 7.0741 12.8801C6.4071 12.6581 5.9621 12.2681 5.6911 11.6641V11.6651ZM8.6911 7.6791C8.18748 8.13371 7.71757 8.62434 7.2851 9.1471C7.4791 9.3981 7.6911 9.6361 7.9061 9.8511C8.4911 10.4351 9.2391 10.9961 9.9761 11.2411C10.2183 11.3229 10.4827 11.3088 10.7149 11.2017C10.9471 11.0946 11.1294 10.9026 11.2244 10.6652C11.3194 10.4278 11.3199 10.1631 11.2257 9.92535C11.1315 9.68764 10.9499 9.49502 10.7181 9.3871L10.6091 9.3441C10.2861 9.2371 9.7971 8.9141 9.3211 8.4371C9.08664 8.20579 8.87562 7.95189 8.6911 7.6791ZM13.1111 5.1491C12.4931 5.3271 11.8521 5.5791 11.2041 5.9171C11.7241 6.7641 12.5031 7.3691 13.5121 7.7061C13.6372 7.74968 13.7696 7.76798 13.9018 7.75995C14.034 7.75191 14.1633 7.7177 14.2822 7.6593C14.401 7.60089 14.5071 7.51946 14.5942 7.41973C14.6814 7.31999 14.7478 7.20394 14.7897 7.07832C14.8317 6.95269 14.8482 6.81999 14.8384 6.68791C14.8286 6.55584 14.7927 6.42702 14.7327 6.30894C14.6728 6.19086 14.5899 6.08587 14.4891 6.00007C14.3882 5.91426 14.2713 5.84935 14.1451 5.8091C13.7111 5.6641 13.3711 5.4491 13.1111 5.1491Z" fill="black" fill-opacity="0.2"/>
</svg>
