<svg width="24" height="24" viewBox="0 0 24 24" fill="none" xmlns="http://www.w3.org/2000/svg">
<path d="M19.8389 4C20.4116 4.00008 20.9612 4.23258 21.3662 4.64551C21.771 5.05845 21.999 5.6183 21.999 6.20215V9.14258C21.9992 9.30379 21.9465 9.46073 21.8506 9.58887C21.7545 9.71704 21.6195 9.81028 21.4668 9.85254C21.0053 9.98166 20.5978 10.2615 20.3076 10.6494C20.0174 11.0374 19.8604 11.512 19.8604 12C19.8604 12.488 20.0174 12.9626 20.3076 13.3506C20.5978 13.7385 21.0053 14.0183 21.4668 14.1475C21.6197 14.1894 21.7552 14.282 21.8516 14.4102C21.9479 14.5384 22.0001 14.6959 22 14.8574V17.7979C22 18.3818 21.7721 18.9415 21.3672 19.3545C20.9621 19.7675 20.4127 20 19.8398 20H16.1104V17.4824C16.1104 17.2391 16.0155 17.0051 15.8467 16.833C15.678 16.6612 15.4494 16.5646 15.2109 16.5645C14.9723 16.5645 14.743 16.661 14.5742 16.833C14.4054 17.0051 14.3105 17.2391 14.3105 17.4824V20H4.16016C3.58729 20 3.03789 19.7675 2.63281 19.3545C2.22786 18.9415 2.00002 18.3818 2 17.7979V14.8633C1.99987 14.701 2.05225 14.5426 2.14941 14.4141C2.2466 14.2855 2.38313 14.1936 2.53711 14.1523C3.00308 14.0266 3.41497 13.7469 3.70898 13.3574C4.00294 12.968 4.16309 12.4904 4.16309 11.999C4.16303 11.5077 4.00295 11.03 3.70898 10.6406C3.415 10.2513 3.00296 9.97242 2.53711 9.84668C2.38312 9.80545 2.2466 9.71256 2.14941 9.58398C2.05242 9.45551 1.9999 9.29788 2 9.13574V6.20215C2.00002 5.61819 2.22786 5.05847 2.63281 4.64551C3.03789 4.23251 3.58729 4 4.16016 4H14.3105V6.5293C14.3105 6.77266 14.4054 7.00663 14.5742 7.17871C14.743 7.3507 14.9723 7.44727 15.2109 7.44727C15.4494 7.44716 15.678 7.35055 15.8467 7.17871C16.0155 7.00663 16.1104 6.77266 16.1104 6.5293V4H19.8389ZM15.2109 9.60059C14.9722 9.60059 14.743 9.69803 14.5742 9.87012C14.4055 10.0422 14.3106 10.2753 14.3105 10.5186V13.4785C14.3106 13.7218 14.4055 13.9549 14.5742 14.127C14.743 14.299 14.9722 14.3965 15.2109 14.3965C15.4495 14.3964 15.678 14.2989 15.8467 14.127C16.0154 13.9549 16.1103 13.7218 16.1104 13.4785V10.5186C16.1103 10.2752 16.0154 10.0422 15.8467 9.87012C15.678 9.69813 15.4495 9.60069 15.2109 9.60059Z" fill="black"/>
<path d="M19.8389 4C20.4116 4.00008 20.9612 4.23258 21.3662 4.64551C21.771 5.05845 21.999 5.6183 21.999 6.20215V9.14258C21.9992 9.30379 21.9465 9.46073 21.8506 9.58887C21.7545 9.71704 21.6195 9.81028 21.4668 9.85254C21.0053 9.98166 20.5978 10.2615 20.3076 10.6494C20.0174 11.0374 19.8604 11.512 19.8604 12C19.8604 12.488 20.0174 12.9626 20.3076 13.3506C20.5978 13.7385 21.0053 14.0183 21.4668 14.1475C21.6197 14.1894 21.7552 14.282 21.8516 14.4102C21.9479 14.5384 22.0001 14.6959 22 14.8574V17.7979C22 18.3818 21.7721 18.9415 21.3672 19.3545C20.9621 19.7675 20.4127 20 19.8398 20H16.1104V17.4824C16.1104 17.2391 16.0155 17.0051 15.8467 16.833C15.678 16.6612 15.4494 16.5646 15.2109 16.5645C14.9723 16.5645 14.743 16.661 14.5742 16.833C14.4054 17.0051 14.3105 17.2391 14.3105 17.4824V20H4.16016C3.58729 20 3.03789 19.7675 2.63281 19.3545C2.22786 18.9415 2.00002 18.3818 2 17.7979V14.8633C1.99987 14.701 2.05225 14.5426 2.14941 14.4141C2.2466 14.2855 2.38313 14.1936 2.53711 14.1523C3.00308 14.0266 3.41497 13.7469 3.70898 13.3574C4.00294 12.968 4.16309 12.4904 4.16309 11.999C4.16303 11.5077 4.00295 11.03 3.70898 10.6406C3.415 10.2513 3.00296 9.97242 2.53711 9.84668C2.38312 9.80545 2.2466 9.71256 2.14941 9.58398C2.05242 9.45551 1.9999 9.29788 2 9.13574V6.20215C2.00002 5.61819 2.22786 5.05847 2.63281 4.64551C3.03789 4.23251 3.58729 4 4.16016 4H14.3105V6.5293C14.3105 6.77266 14.4054 7.00663 14.5742 7.17871C14.743 7.3507 14.9723 7.44727 15.2109 7.44727C15.4494 7.44716 15.678 7.35055 15.8467 7.17871C16.0155 7.00663 16.1104 6.77266 16.1104 6.5293V4H19.8389ZM15.2109 9.60059C14.9722 9.60059 14.743 9.69803 14.5742 9.87012C14.4055 10.0422 14.3106 10.2753 14.3105 10.5186V13.4785C14.3106 13.7218 14.4055 13.9549 14.5742 14.127C14.743 14.299 14.9722 14.3965 15.2109 14.3965C15.4495 14.3964 15.678 14.2989 15.8467 14.127C16.0154 13.9549 16.1103 13.7218 16.1104 13.4785V10.5186C16.1103 10.2752 16.0154 10.0422 15.8467 9.87012C15.678 9.69813 15.4495 9.60069 15.2109 9.60059Z" fill="black" fill-opacity="0.2"/>
<path d="M19.8389 4C20.4116 4.00008 20.9612 4.23258 21.3662 4.64551C21.771 5.05845 21.999 5.6183 21.999 6.20215V9.14258C21.9992 9.30379 21.9465 9.46073 21.8506 9.58887C21.7545 9.71704 21.6195 9.81028 21.4668 9.85254C21.0053 9.98166 20.5978 10.2615 20.3076 10.6494C20.0174 11.0374 19.8604 11.512 19.8604 12C19.8604 12.488 20.0174 12.9626 20.3076 13.3506C20.5978 13.7385 21.0053 14.0183 21.4668 14.1475C21.6197 14.1894 21.7552 14.282 21.8516 14.4102C21.9479 14.5384 22.0001 14.6959 22 14.8574V17.7979C22 18.3818 21.7721 18.9415 21.3672 19.3545C20.9621 19.7675 20.4127 20 19.8398 20H16.1104V17.4824C16.1104 17.2391 16.0155 17.0051 15.8467 16.833C15.678 16.6612 15.4494 16.5646 15.2109 16.5645C14.9723 16.5645 14.743 16.661 14.5742 16.833C14.4054 17.0051 14.3105 17.2391 14.3105 17.4824V20H4.16016C3.58729 20 3.03789 19.7675 2.63281 19.3545C2.22786 18.9415 2.00002 18.3818 2 17.7979V14.8633C1.99987 14.701 2.05225 14.5426 2.14941 14.4141C2.2466 14.2855 2.38313 14.1936 2.53711 14.1523C3.00308 14.0266 3.41497 13.7469 3.70898 13.3574C4.00294 12.968 4.16309 12.4904 4.16309 11.999C4.16303 11.5077 4.00295 11.03 3.70898 10.6406C3.415 10.2513 3.00296 9.97242 2.53711 9.84668C2.38312 9.80545 2.2466 9.71256 2.14941 9.58398C2.05242 9.45551 1.9999 9.29788 2 9.13574V6.20215C2.00002 5.61819 2.22786 5.05847 2.63281 4.64551C3.03789 4.23251 3.58729 4 4.16016 4H14.3105V6.5293C14.3105 6.77266 14.4054 7.00663 14.5742 7.17871C14.743 7.3507 14.9723 7.44727 15.2109 7.44727C15.4494 7.44716 15.678 7.35055 15.8467 7.17871C16.0155 7.00663 16.1104 6.77266 16.1104 6.5293V4H19.8389ZM15.2109 9.60059C14.9722 9.60059 14.743 9.69803 14.5742 9.87012C14.4055 10.0422 14.3106 10.2753 14.3105 10.5186V13.4785C14.3106 13.7218 14.4055 13.9549 14.5742 14.127C14.743 14.299 14.9722 14.3965 15.2109 14.3965C15.4495 14.3964 15.678 14.2989 15.8467 14.127C16.0154 13.9549 16.1103 13.7218 16.1104 13.4785V10.5186C16.1103 10.2752 16.0154 10.0422 15.8467 9.87012C15.678 9.69813 15.4495 9.60069 15.2109 9.60059Z" fill="black" fill-opacity="0.2"/>
<path d="M19.8389 4C20.4116 4.00008 20.9612 4.23258 21.3662 4.64551C21.771 5.05845 21.999 5.6183 21.999 6.20215V9.14258C21.9992 9.30379 21.9465 9.46073 21.8506 9.58887C21.7545 9.71704 21.6195 9.81028 21.4668 9.85254C21.0053 9.98166 20.5978 10.2615 20.3076 10.6494C20.0174 11.0374 19.8604 11.512 19.8604 12C19.8604 12.488 20.0174 12.9626 20.3076 13.3506C20.5978 13.7385 21.0053 14.0183 21.4668 14.1475C21.6197 14.1894 21.7552 14.282 21.8516 14.4102C21.9479 14.5384 22.0001 14.6959 22 14.8574V17.7979C22 18.3818 21.7721 18.9415 21.3672 19.3545C20.9621 19.7675 20.4127 20 19.8398 20H16.1104V17.4824C16.1104 17.2391 16.0155 17.0051 15.8467 16.833C15.678 16.6612 15.4494 16.5646 15.2109 16.5645C14.9723 16.5645 14.743 16.661 14.5742 16.833C14.4054 17.0051 14.3105 17.2391 14.3105 17.4824V20H4.16016C3.58729 20 3.03789 19.7675 2.63281 19.3545C2.22786 18.9415 2.00002 18.3818 2 17.7979V14.8633C1.99987 14.701 2.05225 14.5426 2.14941 14.4141C2.2466 14.2855 2.38313 14.1936 2.53711 14.1523C3.00308 14.0266 3.41497 13.7469 3.70898 13.3574C4.00294 12.968 4.16309 12.4904 4.16309 11.999C4.16303 11.5077 4.00295 11.03 3.70898 10.6406C3.415 10.2513 3.00296 9.97242 2.53711 9.84668C2.38312 9.80545 2.2466 9.71256 2.14941 9.58398C2.05242 9.45551 1.9999 9.29788 2 9.13574V6.20215C2.00002 5.61819 2.22786 5.05847 2.63281 4.64551C3.03789 4.23251 3.58729 4 4.16016 4H14.3105V6.5293C14.3105 6.77266 14.4054 7.00663 14.5742 7.17871C14.743 7.3507 14.9723 7.44727 15.2109 7.44727C15.4494 7.44716 15.678 7.35055 15.8467 7.17871C16.0155 7.00663 16.1104 6.77266 16.1104 6.5293V4H19.8389ZM15.2109 9.60059C14.9722 9.60059 14.743 9.69803 14.5742 9.87012C14.4055 10.0422 14.3106 10.2753 14.3105 10.5186V13.4785C14.3106 13.7218 14.4055 13.9549 14.5742 14.127C14.743 14.299 14.9722 14.3965 15.2109 14.3965C15.4495 14.3964 15.678 14.2989 15.8467 14.127C16.0154 13.9549 16.1103 13.7218 16.1104 13.4785V10.5186C16.1103 10.2752 16.0154 10.0422 15.8467 9.87012C15.678 9.69813 15.4495 9.60069 15.2109 9.60059Z" fill="black" fill-opacity="0.2"/>
</svg>
