<svg width="24" height="24" viewBox="0 0 24 24" fill="none" xmlns="http://www.w3.org/2000/svg">
<path fill-rule="evenodd" clip-rule="evenodd" d="M8 6C8 5.20435 8.31607 4.44129 8.87868 3.87868C9.44129 3.31607 10.2043 3 11 3H13C13.7956 3 14.5587 3.31607 15.1213 3.87868C15.6839 4.44129 16 5.20435 16 6V21H8V6ZM6 7H5C4.20435 7 3.44129 7.31607 2.87868 7.87868C2.31607 8.44129 2 9.20435 2 10V18C2 18.7956 2.31607 19.5587 2.87868 20.1213C3.44129 20.6839 4.20435 21 5 21H6V7ZM18 21H19C19.7956 21 20.5587 20.6839 21.1213 20.1213C21.6839 19.5587 22 18.7956 22 18V10C22 9.20435 21.6839 8.44129 21.1213 7.87868C20.5587 7.31607 19.7956 7 19 7H18V21ZM10 7H14V6C14 5.73478 13.8946 5.48043 13.7071 5.29289C13.5196 5.10536 13.2652 5 13 5H11C10.7348 5 10.4804 5.10536 10.2929 5.29289C10.1054 5.48043 10 5.73478 10 6V7Z" fill="black"/>
<path fill-rule="evenodd" clip-rule="evenodd" d="M8 6C8 5.20435 8.31607 4.44129 8.87868 3.87868C9.44129 3.31607 10.2043 3 11 3H13C13.7956 3 14.5587 3.31607 15.1213 3.87868C15.6839 4.44129 16 5.20435 16 6V21H8V6ZM6 7H5C4.20435 7 3.44129 7.31607 2.87868 7.87868C2.31607 8.44129 2 9.20435 2 10V18C2 18.7956 2.31607 19.5587 2.87868 20.1213C3.44129 20.6839 4.20435 21 5 21H6V7ZM18 21H19C19.7956 21 20.5587 20.6839 21.1213 20.1213C21.6839 19.5587 22 18.7956 22 18V10C22 9.20435 21.6839 8.44129 21.1213 7.87868C20.5587 7.31607 19.7956 7 19 7H18V21ZM10 7H14V6C14 5.73478 13.8946 5.48043 13.7071 5.29289C13.5196 5.10536 13.2652 5 13 5H11C10.7348 5 10.4804 5.10536 10.2929 5.29289C10.1054 5.48043 10 5.73478 10 6V7Z" fill="black" fill-opacity="0.2"/>
<path fill-rule="evenodd" clip-rule="evenodd" d="M8 6C8 5.20435 8.31607 4.44129 8.87868 3.87868C9.44129 3.31607 10.2043 3 11 3H13C13.7956 3 14.5587 3.31607 15.1213 3.87868C15.6839 4.44129 16 5.20435 16 6V21H8V6ZM6 7H5C4.20435 7 3.44129 7.31607 2.87868 7.87868C2.31607 8.44129 2 9.20435 2 10V18C2 18.7956 2.31607 19.5587 2.87868 20.1213C3.44129 20.6839 4.20435 21 5 21H6V7ZM18 21H19C19.7956 21 20.5587 20.6839 21.1213 20.1213C21.6839 19.5587 22 18.7956 22 18V10C22 9.20435 21.6839 8.44129 21.1213 7.87868C20.5587 7.31607 19.7956 7 19 7H18V21ZM10 7H14V6C14 5.73478 13.8946 5.48043 13.7071 5.29289C13.5196 5.10536 13.2652 5 13 5H11C10.7348 5 10.4804 5.10536 10.2929 5.29289C10.1054 5.48043 10 5.73478 10 6V7Z" fill="black" fill-opacity="0.2"/>
<path fill-rule="evenodd" clip-rule="evenodd" d="M8 6C8 5.20435 8.31607 4.44129 8.87868 3.87868C9.44129 3.31607 10.2043 3 11 3H13C13.7956 3 14.5587 3.31607 15.1213 3.87868C15.6839 4.44129 16 5.20435 16 6V21H8V6ZM6 7H5C4.20435 7 3.44129 7.31607 2.87868 7.87868C2.31607 8.44129 2 9.20435 2 10V18C2 18.7956 2.31607 19.5587 2.87868 20.1213C3.44129 20.6839 4.20435 21 5 21H6V7ZM18 21H19C19.7956 21 20.5587 20.6839 21.1213 20.1213C21.6839 19.5587 22 18.7956 22 18V10C22 9.20435 21.6839 8.44129 21.1213 7.87868C20.5587 7.31607 19.7956 7 19 7H18V21ZM10 7H14V6C14 5.73478 13.8946 5.48043 13.7071 5.29289C13.5196 5.10536 13.2652 5 13 5H11C10.7348 5 10.4804 5.10536 10.2929 5.29289C10.1054 5.48043 10 5.73478 10 6V7Z" fill="black" fill-opacity="0.2"/>
</svg>
