<svg width="24" height="24" viewBox="0 0 24 24" fill="none" xmlns="http://www.w3.org/2000/svg">
<path d="M7.48349 14.9998C7.38784 14.9997 7.29436 14.9686 7.21486 14.9104C7.13536 14.8522 7.0734 14.7695 7.03681 14.6729C7.00022 14.5762 6.99064 14.4698 7.00928 14.3671C7.02791 14.2645 7.07393 14.1702 7.14152 14.0962L11.658 9.1546C11.7488 9.05545 11.8718 8.99976 12 8.99976C12.1282 8.99976 12.2512 9.05545 12.342 9.1546L16.8585 14.0962C16.9261 14.1702 16.9721 14.2645 16.9907 14.3671C17.0094 14.4698 16.9998 14.5762 16.9632 14.6729C16.9266 14.7695 16.8646 14.8522 16.7851 14.9104C16.7056 14.9686 16.6122 14.9997 16.5165 14.9998H7.48349Z" fill="#666666"/>
</svg>
