<svg width="24" height="24" viewBox="0 0 24 24" fill="none" xmlns="http://www.w3.org/2000/svg">
<path d="M19.8948 10.8131L18.6636 6.93706C18.485 6.37273 18.1415 5.88183 17.6818 5.53409C17.2221 5.18635 16.6697 4.99947 16.1031 5H7.8969C7.33025 4.99947 6.77785 5.18635 6.3182 5.53409C5.85854 5.88183 5.515 6.37273 5.3364 6.93706L4.1052 10.8131C3.7778 10.9568 3.4982 11.1989 3.30156 11.509C3.10492 11.819 3 12.1831 3 12.5556V17.2778C3 17.9748 3.3636 18.5773 3.9 18.9051V21.0556C3.9 21.306 3.99482 21.5463 4.1636 21.7234C4.33239 21.9005 4.56131 22 4.8 22H5.7C5.93869 22 6.16761 21.9005 6.3364 21.7234C6.50518 21.5463 6.6 21.306 6.6 21.0556V19.1667H17.4V21.0556C17.4 21.306 17.4948 21.5463 17.6636 21.7234C17.8324 21.9005 18.0613 22 18.3 22H19.2C19.4387 22 19.6676 21.9005 19.8364 21.7234C20.0052 21.5463 20.1 21.306 20.1 21.0556V18.9051C20.3731 18.7407 20.6 18.5038 20.758 18.2181C20.916 17.9324 20.9995 17.6081 21 17.2778V12.5556C21 12.1831 20.8951 11.819 20.6984 11.509C20.5018 11.1989 20.2222 10.9568 19.8948 10.8131ZM7.8969 6.88889H16.1022C16.4901 6.88889 16.8339 7.14767 16.9563 7.53489L17.9517 10.6667H6.0483L7.0428 7.53489C7.10251 7.34675 7.21714 7.18311 7.37044 7.06716C7.52374 6.95121 7.70793 6.88884 7.8969 6.88889ZM6.15 16.3333C5.97266 16.3333 5.79706 16.2966 5.63324 16.2253C5.46942 16.154 5.32058 16.0496 5.19522 15.9179C5.06986 15.7863 4.97044 15.63 4.90262 15.4581C4.83481 15.2861 4.79994 15.1018 4.8 14.9157C4.80006 14.7296 4.83505 14.5454 4.90297 14.3734C4.97089 14.2015 5.07041 14.0453 5.19586 13.9138C5.3213 13.7822 5.4702 13.6779 5.63407 13.6067C5.79794 13.5356 5.97356 13.499 6.1509 13.4991C6.50906 13.4992 6.85251 13.6486 7.10568 13.9145C7.35885 14.1803 7.50102 14.5408 7.5009 14.9167C7.50078 15.2925 7.35839 15.6529 7.10504 15.9186C6.8517 16.1843 6.50816 16.3335 6.15 16.3333ZM17.85 16.3333C17.6727 16.3333 17.4971 16.2966 17.3332 16.2253C17.1694 16.154 17.0206 16.0496 16.8952 15.9179C16.7699 15.7863 16.6704 15.63 16.6026 15.4581C16.5348 15.2861 16.4999 15.1018 16.5 14.9157C16.5001 14.7296 16.535 14.5454 16.603 14.3734C16.6709 14.2015 16.7704 14.0453 16.8959 13.9138C17.0213 13.7822 17.1702 13.6779 17.3341 13.6067C17.4979 13.5356 17.6736 13.499 17.8509 13.4991C18.2091 13.4992 18.5525 13.6486 18.8057 13.9145C19.0589 14.1803 19.201 14.5408 19.2009 14.9167C19.2008 15.2925 19.0584 15.6529 18.805 15.9186C18.5517 16.1843 18.2082 16.3335 17.85 16.3333Z" fill="black"/>
<path d="M19.8948 10.8131L18.6636 6.93706C18.485 6.37273 18.1415 5.88183 17.6818 5.53409C17.2221 5.18635 16.6697 4.99947 16.1031 5H7.8969C7.33025 4.99947 6.77785 5.18635 6.3182 5.53409C5.85854 5.88183 5.515 6.37273 5.3364 6.93706L4.1052 10.8131C3.7778 10.9568 3.4982 11.1989 3.30156 11.509C3.10492 11.819 3 12.1831 3 12.5556V17.2778C3 17.9748 3.3636 18.5773 3.9 18.9051V21.0556C3.9 21.306 3.99482 21.5463 4.1636 21.7234C4.33239 21.9005 4.56131 22 4.8 22H5.7C5.93869 22 6.16761 21.9005 6.3364 21.7234C6.50518 21.5463 6.6 21.306 6.6 21.0556V19.1667H17.4V21.0556C17.4 21.306 17.4948 21.5463 17.6636 21.7234C17.8324 21.9005 18.0613 22 18.3 22H19.2C19.4387 22 19.6676 21.9005 19.8364 21.7234C20.0052 21.5463 20.1 21.306 20.1 21.0556V18.9051C20.3731 18.7407 20.6 18.5038 20.758 18.2181C20.916 17.9324 20.9995 17.6081 21 17.2778V12.5556C21 12.1831 20.8951 11.819 20.6984 11.509C20.5018 11.1989 20.2222 10.9568 19.8948 10.8131ZM7.8969 6.88889H16.1022C16.4901 6.88889 16.8339 7.14767 16.9563 7.53489L17.9517 10.6667H6.0483L7.0428 7.53489C7.10251 7.34675 7.21714 7.18311 7.37044 7.06716C7.52374 6.95121 7.70793 6.88884 7.8969 6.88889ZM6.15 16.3333C5.97266 16.3333 5.79706 16.2966 5.63324 16.2253C5.46942 16.154 5.32058 16.0496 5.19522 15.9179C5.06986 15.7863 4.97044 15.63 4.90262 15.4581C4.83481 15.2861 4.79994 15.1018 4.8 14.9157C4.80006 14.7296 4.83505 14.5454 4.90297 14.3734C4.97089 14.2015 5.07041 14.0453 5.19586 13.9138C5.3213 13.7822 5.4702 13.6779 5.63407 13.6067C5.79794 13.5356 5.97356 13.499 6.1509 13.4991C6.50906 13.4992 6.85251 13.6486 7.10568 13.9145C7.35885 14.1803 7.50102 14.5408 7.5009 14.9167C7.50078 15.2925 7.35839 15.6529 7.10504 15.9186C6.8517 16.1843 6.50816 16.3335 6.15 16.3333ZM17.85 16.3333C17.6727 16.3333 17.4971 16.2966 17.3332 16.2253C17.1694 16.154 17.0206 16.0496 16.8952 15.9179C16.7699 15.7863 16.6704 15.63 16.6026 15.4581C16.5348 15.2861 16.4999 15.1018 16.5 14.9157C16.5001 14.7296 16.535 14.5454 16.603 14.3734C16.6709 14.2015 16.7704 14.0453 16.8959 13.9138C17.0213 13.7822 17.1702 13.6779 17.3341 13.6067C17.4979 13.5356 17.6736 13.499 17.8509 13.4991C18.2091 13.4992 18.5525 13.6486 18.8057 13.9145C19.0589 14.1803 19.201 14.5408 19.2009 14.9167C19.2008 15.2925 19.0584 15.6529 18.805 15.9186C18.5517 16.1843 18.2082 16.3335 17.85 16.3333Z" fill="black" fill-opacity="0.2"/>
<path d="M19.8948 10.8131L18.6636 6.93706C18.485 6.37273 18.1415 5.88183 17.6818 5.53409C17.2221 5.18635 16.6697 4.99947 16.1031 5H7.8969C7.33025 4.99947 6.77785 5.18635 6.3182 5.53409C5.85854 5.88183 5.515 6.37273 5.3364 6.93706L4.1052 10.8131C3.7778 10.9568 3.4982 11.1989 3.30156 11.509C3.10492 11.819 3 12.1831 3 12.5556V17.2778C3 17.9748 3.3636 18.5773 3.9 18.9051V21.0556C3.9 21.306 3.99482 21.5463 4.1636 21.7234C4.33239 21.9005 4.56131 22 4.8 22H5.7C5.93869 22 6.16761 21.9005 6.3364 21.7234C6.50518 21.5463 6.6 21.306 6.6 21.0556V19.1667H17.4V21.0556C17.4 21.306 17.4948 21.5463 17.6636 21.7234C17.8324 21.9005 18.0613 22 18.3 22H19.2C19.4387 22 19.6676 21.9005 19.8364 21.7234C20.0052 21.5463 20.1 21.306 20.1 21.0556V18.9051C20.3731 18.7407 20.6 18.5038 20.758 18.2181C20.916 17.9324 20.9995 17.6081 21 17.2778V12.5556C21 12.1831 20.8951 11.819 20.6984 11.509C20.5018 11.1989 20.2222 10.9568 19.8948 10.8131ZM7.8969 6.88889H16.1022C16.4901 6.88889 16.8339 7.14767 16.9563 7.53489L17.9517 10.6667H6.0483L7.0428 7.53489C7.10251 7.34675 7.21714 7.18311 7.37044 7.06716C7.52374 6.95121 7.70793 6.88884 7.8969 6.88889ZM6.15 16.3333C5.97266 16.3333 5.79706 16.2966 5.63324 16.2253C5.46942 16.154 5.32058 16.0496 5.19522 15.9179C5.06986 15.7863 4.97044 15.63 4.90262 15.4581C4.83481 15.2861 4.79994 15.1018 4.8 14.9157C4.80006 14.7296 4.83505 14.5454 4.90297 14.3734C4.97089 14.2015 5.07041 14.0453 5.19586 13.9138C5.3213 13.7822 5.4702 13.6779 5.63407 13.6067C5.79794 13.5356 5.97356 13.499 6.1509 13.4991C6.50906 13.4992 6.85251 13.6486 7.10568 13.9145C7.35885 14.1803 7.50102 14.5408 7.5009 14.9167C7.50078 15.2925 7.35839 15.6529 7.10504 15.9186C6.8517 16.1843 6.50816 16.3335 6.15 16.3333ZM17.85 16.3333C17.6727 16.3333 17.4971 16.2966 17.3332 16.2253C17.1694 16.154 17.0206 16.0496 16.8952 15.9179C16.7699 15.7863 16.6704 15.63 16.6026 15.4581C16.5348 15.2861 16.4999 15.1018 16.5 14.9157C16.5001 14.7296 16.535 14.5454 16.603 14.3734C16.6709 14.2015 16.7704 14.0453 16.8959 13.9138C17.0213 13.7822 17.1702 13.6779 17.3341 13.6067C17.4979 13.5356 17.6736 13.499 17.8509 13.4991C18.2091 13.4992 18.5525 13.6486 18.8057 13.9145C19.0589 14.1803 19.201 14.5408 19.2009 14.9167C19.2008 15.2925 19.0584 15.6529 18.805 15.9186C18.5517 16.1843 18.2082 16.3335 17.85 16.3333Z" fill="black" fill-opacity="0.2"/>
<path d="M19.8948 10.8131L18.6636 6.93706C18.485 6.37273 18.1415 5.88183 17.6818 5.53409C17.2221 5.18635 16.6697 4.99947 16.1031 5H7.8969C7.33025 4.99947 6.77785 5.18635 6.3182 5.53409C5.85854 5.88183 5.515 6.37273 5.3364 6.93706L4.1052 10.8131C3.7778 10.9568 3.4982 11.1989 3.30156 11.509C3.10492 11.819 3 12.1831 3 12.5556V17.2778C3 17.9748 3.3636 18.5773 3.9 18.9051V21.0556C3.9 21.306 3.99482 21.5463 4.1636 21.7234C4.33239 21.9005 4.56131 22 4.8 22H5.7C5.93869 22 6.16761 21.9005 6.3364 21.7234C6.50518 21.5463 6.6 21.306 6.6 21.0556V19.1667H17.4V21.0556C17.4 21.306 17.4948 21.5463 17.6636 21.7234C17.8324 21.9005 18.0613 22 18.3 22H19.2C19.4387 22 19.6676 21.9005 19.8364 21.7234C20.0052 21.5463 20.1 21.306 20.1 21.0556V18.9051C20.3731 18.7407 20.6 18.5038 20.758 18.2181C20.916 17.9324 20.9995 17.6081 21 17.2778V12.5556C21 12.1831 20.8951 11.819 20.6984 11.509C20.5018 11.1989 20.2222 10.9568 19.8948 10.8131ZM7.8969 6.88889H16.1022C16.4901 6.88889 16.8339 7.14767 16.9563 7.53489L17.9517 10.6667H6.0483L7.0428 7.53489C7.10251 7.34675 7.21714 7.18311 7.37044 7.06716C7.52374 6.95121 7.70793 6.88884 7.8969 6.88889ZM6.15 16.3333C5.97266 16.3333 5.79706 16.2966 5.63324 16.2253C5.46942 16.154 5.32058 16.0496 5.19522 15.9179C5.06986 15.7863 4.97044 15.63 4.90262 15.4581C4.83481 15.2861 4.79994 15.1018 4.8 14.9157C4.80006 14.7296 4.83505 14.5454 4.90297 14.3734C4.97089 14.2015 5.07041 14.0453 5.19586 13.9138C5.3213 13.7822 5.4702 13.6779 5.63407 13.6067C5.79794 13.5356 5.97356 13.499 6.1509 13.4991C6.50906 13.4992 6.85251 13.6486 7.10568 13.9145C7.35885 14.1803 7.50102 14.5408 7.5009 14.9167C7.50078 15.2925 7.35839 15.6529 7.10504 15.9186C6.8517 16.1843 6.50816 16.3335 6.15 16.3333ZM17.85 16.3333C17.6727 16.3333 17.4971 16.2966 17.3332 16.2253C17.1694 16.154 17.0206 16.0496 16.8952 15.9179C16.7699 15.7863 16.6704 15.63 16.6026 15.4581C16.5348 15.2861 16.4999 15.1018 16.5 14.9157C16.5001 14.7296 16.535 14.5454 16.603 14.3734C16.6709 14.2015 16.7704 14.0453 16.8959 13.9138C17.0213 13.7822 17.1702 13.6779 17.3341 13.6067C17.4979 13.5356 17.6736 13.499 17.8509 13.4991C18.2091 13.4992 18.5525 13.6486 18.8057 13.9145C19.0589 14.1803 19.201 14.5408 19.2009 14.9167C19.2008 15.2925 19.0584 15.6529 18.805 15.9186C18.5517 16.1843 18.2082 16.3335 17.85 16.3333Z" fill="black" fill-opacity="0.2"/>
<path d="M21 0C22.6569 0 24 1.3431 24 3C24 4.6569 22.6569 6 21 6C19.3431 6 18 4.6569 18 3C18 1.3431 19.3431 0 21 0ZM21 1.2C20.9204 1.2 20.8441 1.23161 20.7879 1.28787C20.7316 1.34413 20.7 1.42044 20.7 1.5V3C20.7 3.07956 20.7316 3.15585 20.7879 3.2121L21.6879 4.1121C21.7445 4.16675 21.8203 4.19699 21.8989 4.1963C21.9776 4.19562 22.0528 4.16407 22.1084 4.10845C22.1641 4.05282 22.1956 3.97758 22.1963 3.89892C22.197 3.82026 22.1667 3.74448 22.1121 3.6879L21.3 2.8758V1.5C21.3 1.42044 21.2684 1.34413 21.2121 1.28787C21.1559 1.23161 21.0796 1.2 21 1.2Z" fill="black"/>
<path d="M21 0C22.6569 0 24 1.3431 24 3C24 4.6569 22.6569 6 21 6C19.3431 6 18 4.6569 18 3C18 1.3431 19.3431 0 21 0ZM21 1.2C20.9204 1.2 20.8441 1.23161 20.7879 1.28787C20.7316 1.34413 20.7 1.42044 20.7 1.5V3C20.7 3.07956 20.7316 3.15585 20.7879 3.2121L21.6879 4.1121C21.7445 4.16675 21.8203 4.19699 21.8989 4.1963C21.9776 4.19562 22.0528 4.16407 22.1084 4.10845C22.1641 4.05282 22.1956 3.97758 22.1963 3.89892C22.197 3.82026 22.1667 3.74448 22.1121 3.6879L21.3 2.8758V1.5C21.3 1.42044 21.2684 1.34413 21.2121 1.28787C21.1559 1.23161 21.0796 1.2 21 1.2Z" fill="black" fill-opacity="0.2"/>
<path d="M21 0C22.6569 0 24 1.3431 24 3C24 4.6569 22.6569 6 21 6C19.3431 6 18 4.6569 18 3C18 1.3431 19.3431 0 21 0ZM21 1.2C20.9204 1.2 20.8441 1.23161 20.7879 1.28787C20.7316 1.34413 20.7 1.42044 20.7 1.5V3C20.7 3.07956 20.7316 3.15585 20.7879 3.2121L21.6879 4.1121C21.7445 4.16675 21.8203 4.19699 21.8989 4.1963C21.9776 4.19562 22.0528 4.16407 22.1084 4.10845C22.1641 4.05282 22.1956 3.97758 22.1963 3.89892C22.197 3.82026 22.1667 3.74448 22.1121 3.6879L21.3 2.8758V1.5C21.3 1.42044 21.2684 1.34413 21.2121 1.28787C21.1559 1.23161 21.0796 1.2 21 1.2Z" fill="black" fill-opacity="0.2"/>
<path d="M21 0C22.6569 0 24 1.3431 24 3C24 4.6569 22.6569 6 21 6C19.3431 6 18 4.6569 18 3C18 1.3431 19.3431 0 21 0ZM21 1.2C20.9204 1.2 20.8441 1.23161 20.7879 1.28787C20.7316 1.34413 20.7 1.42044 20.7 1.5V3C20.7 3.07956 20.7316 3.15585 20.7879 3.2121L21.6879 4.1121C21.7445 4.16675 21.8203 4.19699 21.8989 4.1963C21.9776 4.19562 22.0528 4.16407 22.1084 4.10845C22.1641 4.05282 22.1956 3.97758 22.1963 3.89892C22.197 3.82026 22.1667 3.74448 22.1121 3.6879L21.3 2.8758V1.5C21.3 1.42044 21.2684 1.34413 21.2121 1.28787C21.1559 1.23161 21.0796 1.2 21 1.2Z" fill="black" fill-opacity="0.2"/>
</svg>
