<svg width="24" height="24" viewBox="0 0 24 24" fill="none" xmlns="http://www.w3.org/2000/svg">
<path d="M5.84291 4.57004C9.24291 1.16904 14.7559 1.16904 18.1569 4.57004C21.5579 7.97104 21.5569 13.482 18.1569 16.883L16.9699 18.056C15.8386 19.1645 14.7032 20.2688 13.5639 21.369C13.1443 21.7747 12.5835 22.0015 11.9999 22.0015C11.4163 22.0015 10.8555 21.7747 10.4359 21.369L6.94491 17.972C6.50624 17.5414 6.13891 17.178 5.84291 16.882C4.2102 15.2492 3.29297 13.0346 3.29297 10.7255C3.29297 8.41643 4.2102 6.20189 5.84291 4.56904M11.9999 8.00004C11.6059 8.00004 11.2158 8.07763 10.8519 8.2284C10.4879 8.37916 10.1572 8.60014 9.87859 8.87872C9.60001 9.15729 9.37904 9.48801 9.22827 9.85199C9.07751 10.216 8.99991 10.6061 8.99991 11C8.99991 11.394 9.07751 11.7841 9.22827 12.1481C9.37904 12.5121 9.60001 12.8428 9.87859 13.1214C10.1572 13.3999 10.4879 13.6209 10.8519 13.7717C11.2158 13.9224 11.6059 14 11.9999 14C12.7956 14 13.5586 13.684 14.1212 13.1214C14.6838 12.5587 14.9999 11.7957 14.9999 11C14.9999 10.2044 14.6838 9.44133 14.1212 8.87872C13.5586 8.31611 12.7956 8.00004 11.9999 8.00004Z" fill="black"/>
<path d="M5.84291 4.57004C9.24291 1.16904 14.7559 1.16904 18.1569 4.57004C21.5579 7.97104 21.5569 13.482 18.1569 16.883L16.9699 18.056C15.8386 19.1645 14.7032 20.2688 13.5639 21.369C13.1443 21.7747 12.5835 22.0015 11.9999 22.0015C11.4163 22.0015 10.8555 21.7747 10.4359 21.369L6.94491 17.972C6.50624 17.5414 6.13891 17.178 5.84291 16.882C4.2102 15.2492 3.29297 13.0346 3.29297 10.7255C3.29297 8.41643 4.2102 6.20189 5.84291 4.56904M11.9999 8.00004C11.6059 8.00004 11.2158 8.07763 10.8519 8.2284C10.4879 8.37916 10.1572 8.60014 9.87859 8.87872C9.60001 9.15729 9.37904 9.48801 9.22827 9.85199C9.07751 10.216 8.99991 10.6061 8.99991 11C8.99991 11.394 9.07751 11.7841 9.22827 12.1481C9.37904 12.5121 9.60001 12.8428 9.87859 13.1214C10.1572 13.3999 10.4879 13.6209 10.8519 13.7717C11.2158 13.9224 11.6059 14 11.9999 14C12.7956 14 13.5586 13.684 14.1212 13.1214C14.6838 12.5587 14.9999 11.7957 14.9999 11C14.9999 10.2044 14.6838 9.44133 14.1212 8.87872C13.5586 8.31611 12.7956 8.00004 11.9999 8.00004Z" fill="black" fill-opacity="0.2"/>
<path d="M5.84291 4.57004C9.24291 1.16904 14.7559 1.16904 18.1569 4.57004C21.5579 7.97104 21.5569 13.482 18.1569 16.883L16.9699 18.056C15.8386 19.1645 14.7032 20.2688 13.5639 21.369C13.1443 21.7747 12.5835 22.0015 11.9999 22.0015C11.4163 22.0015 10.8555 21.7747 10.4359 21.369L6.94491 17.972C6.50624 17.5414 6.13891 17.178 5.84291 16.882C4.2102 15.2492 3.29297 13.0346 3.29297 10.7255C3.29297 8.41643 4.2102 6.20189 5.84291 4.56904M11.9999 8.00004C11.6059 8.00004 11.2158 8.07763 10.8519 8.2284C10.4879 8.37916 10.1572 8.60014 9.87859 8.87872C9.60001 9.15729 9.37904 9.48801 9.22827 9.85199C9.07751 10.216 8.99991 10.6061 8.99991 11C8.99991 11.394 9.07751 11.7841 9.22827 12.1481C9.37904 12.5121 9.60001 12.8428 9.87859 13.1214C10.1572 13.3999 10.4879 13.6209 10.8519 13.7717C11.2158 13.9224 11.6059 14 11.9999 14C12.7956 14 13.5586 13.684 14.1212 13.1214C14.6838 12.5587 14.9999 11.7957 14.9999 11C14.9999 10.2044 14.6838 9.44133 14.1212 8.87872C13.5586 8.31611 12.7956 8.00004 11.9999 8.00004Z" fill="black" fill-opacity="0.2"/>
<path d="M5.84291 4.57004C9.24291 1.16904 14.7559 1.16904 18.1569 4.57004C21.5579 7.97104 21.5569 13.482 18.1569 16.883L16.9699 18.056C15.8386 19.1645 14.7032 20.2688 13.5639 21.369C13.1443 21.7747 12.5835 22.0015 11.9999 22.0015C11.4163 22.0015 10.8555 21.7747 10.4359 21.369L6.94491 17.972C6.50624 17.5414 6.13891 17.178 5.84291 16.882C4.2102 15.2492 3.29297 13.0346 3.29297 10.7255C3.29297 8.41643 4.2102 6.20189 5.84291 4.56904M11.9999 8.00004C11.6059 8.00004 11.2158 8.07763 10.8519 8.2284C10.4879 8.37916 10.1572 8.60014 9.87859 8.87872C9.60001 9.15729 9.37904 9.48801 9.22827 9.85199C9.07751 10.216 8.99991 10.6061 8.99991 11C8.99991 11.394 9.07751 11.7841 9.22827 12.1481C9.37904 12.5121 9.60001 12.8428 9.87859 13.1214C10.1572 13.3999 10.4879 13.6209 10.8519 13.7717C11.2158 13.9224 11.6059 14 11.9999 14C12.7956 14 13.5586 13.684 14.1212 13.1214C14.6838 12.5587 14.9999 11.7957 14.9999 11C14.9999 10.2044 14.6838 9.44133 14.1212 8.87872C13.5586 8.31611 12.7956 8.00004 11.9999 8.00004Z" fill="black" fill-opacity="0.2"/>
</svg>
