<svg width="24" height="24" viewBox="0 0 24 24" fill="none" xmlns="http://www.w3.org/2000/svg">
<path d="M7.48349 8.99976C7.38784 8.99985 7.29436 9.03095 7.21486 9.08913C7.13536 9.14732 7.0734 9.22997 7.03681 9.32666C7.00022 9.42335 6.99064 9.52973 7.00928 9.63237C7.02791 9.73501 7.07393 9.82931 7.14152 9.90336L11.658 14.8449C11.7488 14.9441 11.8718 14.9998 12 14.9998C12.1282 14.9998 12.2512 14.9441 12.342 14.8449L16.8585 9.90336C16.9261 9.82931 16.9721 9.73501 16.9907 9.63237C17.0094 9.52973 16.9998 9.42335 16.9632 9.32666C16.9266 9.22997 16.8646 9.14732 16.7851 9.08913C16.7056 9.03095 16.6122 8.99985 16.5165 8.99976H7.48349Z" fill="#666666"/>
</svg>
