<svg width="24" height="24" viewBox="0 0 24 24" fill="none" xmlns="http://www.w3.org/2000/svg">
<path d="M12 2L3 9V20C3 20.5304 3.21071 21.0391 3.58579 21.4142C3.96086 21.7893 4.46957 22 5 22H9V16C9 14.8954 9.89543 14 11 14H13C14.1046 14 15 14.8954 15 16V22H19C19.5304 22 20.0391 21.7893 20.4142 21.4142C20.7893 21.0391 21 20.5304 21 20V9L12 2Z" fill="black"/>
<path d="M12 2L3 9V20C3 20.5304 3.21071 21.0391 3.58579 21.4142C3.96086 21.7893 4.46957 22 5 22H9V16C9 14.8954 9.89543 14 11 14H13C14.1046 14 15 14.8954 15 16V22H19C19.5304 22 20.0391 21.7893 20.4142 21.4142C20.7893 21.0391 21 20.5304 21 20V9L12 2Z" fill="black" fill-opacity="0.2"/>
<path d="M12 2L3 9V20C3 20.5304 3.21071 21.0391 3.58579 21.4142C3.96086 21.7893 4.46957 22 5 22H9V16C9 14.8954 9.89543 14 11 14H13C14.1046 14 15 14.8954 15 16V22H19C19.5304 22 20.0391 21.7893 20.4142 21.4142C20.7893 21.0391 21 20.5304 21 20V9L12 2Z" fill="black" fill-opacity="0.2"/>
<path d="M12 2L3 9V20C3 20.5304 3.21071 21.0391 3.58579 21.4142C3.96086 21.7893 4.46957 22 5 22H9V16C9 14.8954 9.89543 14 11 14H13C14.1046 14 15 14.8954 15 16V22H19C19.5304 22 20.0391 21.7893 20.4142 21.4142C20.7893 21.0391 21 20.5304 21 20V9L12 2Z" fill="black" fill-opacity="0.2"/>
</svg>
