<svg width="24" height="24" viewBox="0 0 24 24" fill="none" xmlns="http://www.w3.org/2000/svg">
<path fill-rule="evenodd" clip-rule="evenodd" d="M8.62371 10.9377C8.43624 11.1252 8.33093 11.3795 8.33093 11.6447C8.33093 11.9099 8.43624 12.1642 8.62371 12.3517L14.2807 18.0087C14.373 18.1042 14.4833 18.1804 14.6053 18.2328C14.7273 18.2852 14.8585 18.3128 14.9913 18.314C15.1241 18.3151 15.2558 18.2898 15.3787 18.2395C15.5016 18.1893 15.6132 18.115 15.7071 18.0211C15.801 17.9272 15.8753 17.8156 15.9255 17.6927C15.9758 17.5698 16.0011 17.4381 16 17.3053C15.9988 17.1725 15.9712 17.0413 15.9188 16.9193C15.8664 16.7973 15.7902 16.687 15.6947 16.5947L10.7447 11.6447L15.6947 6.69471C15.8769 6.50611 15.9777 6.25351 15.9754 5.99131C15.9731 5.72911 15.8679 5.4783 15.6825 5.29289C15.4971 5.10748 15.2463 5.00232 14.9841 5.00004C14.7219 4.99776 14.4693 5.09855 14.2807 5.28071L8.62371 10.9377Z" fill="#C2C2C2"/>
</svg>
