<svg width="82" height="20" viewBox="0 0 82 20" fill="none" xmlns="http://www.w3.org/2000/svg">
<path d="M67.1082 3.72729C66.1792 3.72729 65.7924 4.03423 65.6021 4.83993L63.3635 17.7046H68.2085L70.8181 3.72729H67.1082Z" fill="white"/>
<path d="M15.8409 3.72729H11.9572C11.357 3.72729 11.019 3.91896 10.6228 4.29641L6.17961 8.67242L7.25471 3.73024H3.73515C2.89606 3.73024 2.54935 4.03396 2.38036 4.81834L0 17.7046H4.41401L5.62895 11.636L9.74287 17.7046H15.2436L9.76618 9.8077L15.8409 3.72729Z" fill="white"/>
<path d="M75.7977 14.4286L77.5941 3.72729H74.2234C73.393 3.72729 73.0383 4.02242 72.8596 4.7927L70.8181 17.7046H81.5876L81.9999 14.4286H75.8006H75.7977Z" fill="white"/>
<path d="M55.9143 8.09844L57.6929 17.7045H62.4318L59.5183 3.73202H55.1449C54.4575 3.73202 54.1708 3.92969 53.8666 4.42533L48.1447 15.8518L44.1897 12.2495C45.9829 11.742 47.975 10.3554 48.5338 8.02763C49.5284 3.89134 46.0678 3.72316 44.9152 3.72316H38.5615C37.7395 3.72316 37.5932 3.90313 37.4177 4.65545L36.1949 10.4528C33.0765 8.40232 26.0032 4.25127 21.0243 4.18636C19.7694 4.16866 18.8567 4.36043 17.9703 4.90918C17.8387 4.99474 17.8007 4.97998 17.7831 4.97703L17.8533 4.83247C18.3916 4.17456 19.4827 3.10951 21.3256 2.53716C21.3256 2.53716 24.2626 1.50456 28.2088 3.91494C30.5023 5.31927 32.0439 6.49643 33.5446 7.74735C32.4066 2.99445 28.0041 -0.401324 22.9755 0.0382679C18.415 0.427705 14.8286 3.82938 13.9773 8.12499C16.4082 5.92703 21.0741 5.14815 28.2088 7.60869C29.8119 8.16039 31.2892 8.76225 32.6407 9.37296C33.8751 9.92761 35.1242 10.5885 36.4289 11.3467C39.1202 12.9074 42.1245 15.0847 44.5583 17.7045H51.2338L55.9114 8.09844H55.9143ZM40.7467 10.6799C40.8841 10.0043 41.633 6.36072 41.7325 5.87983H43.3794C43.3794 5.87983 45.0293 5.77951 44.4413 8.02468C44.4413 8.02468 43.786 10.6799 40.7496 10.6799H40.7467Z" fill="white"/>
<path d="M40.0681 13.8262C39.7205 15.3202 39.353 17.2053 39.353 17.2053H34.8203L35.8516 12.4109C34.8402 12.0845 34.1308 11.8876 33.8089 11.806C32.9827 15.8913 29.5553 19.1607 25.1223 19.5321C22.2448 19.7741 19.5525 18.7865 17.5981 16.983L17.5867 16.9746C17.5867 16.9746 15.7035 15.2808 15.8488 12.833C15.9941 10.3204 18.2334 9.29909 18.2334 9.29909C20.8374 7.92043 26.6038 7.77132 34.7576 11.2208C34.7576 11.2208 37.4955 12.2843 40.0681 13.8233V13.8262Z" fill="white"/>
</svg>
