<svg width="44" height="44" viewBox="0 0 44 44" fill="none" xmlns="http://www.w3.org/2000/svg">
<path d="M33 13.9999V19.9999M33 19.9999H27M33 19.9999L28.36 15.64C27.2853 14.5647 25.9556 13.7792 24.4952 13.3568C23.0348 12.9344 21.4911 12.8888 20.0083 13.2243C18.5255 13.5598 17.1518 14.2654 16.0155 15.2754C14.8791 16.2854 14.0172 17.5668 13.51 19M11 29.9999V23.9999M11 23.9999H17M11 23.9999L15.64 28.36C16.7147 29.4353 18.0444 30.2208 19.5048 30.6432C20.9652 31.0657 22.5089 31.1113 23.9917 30.7758C25.4745 30.4402 26.8482 29.7346 27.9845 28.7246C29.1209 27.7146 29.9828 26.4332 30.49 25" stroke="white" stroke-width="2" stroke-linecap="round" stroke-linejoin="round"/>
</svg>
